<svg width="834" height="902" viewBox="0 0 834 902" fill="none" xmlns="http://www.w3.org/2000/svg">
<path d="M386.778 0.608187C393.893 0.193037 401.248 0.528885 408.313 0.252085C536.628 -4.77221 656.653 65.7749 728.083 170.069C743.693 192.86 760.868 222.033 763.728 250.146C764.388 256.633 762.258 266.242 761.053 272.892C775.838 302.092 785.413 341.946 794.588 373.429C809.028 422.971 819.723 474.137 827.173 525.172C832.763 563.422 836.243 602.232 832.178 640.837C830.613 655.242 826.153 673.087 820.858 686.437C818.133 693.317 814.738 699.767 811.913 706.572C817.643 712.377 823.978 725.222 821.928 733.382C819.753 742.042 814.688 751.652 810.748 759.752C796.323 789.417 779.618 818.302 761.848 846.067C759.028 850.477 749.263 854.387 744.248 856.707C735.178 860.992 725.968 864.972 716.633 868.642C638.803 899.862 557.488 902.842 474.993 896.052C426.633 892.232 378.628 884.797 331.38 873.817C310.232 868.747 289.867 863.697 269.09 857.157C248.451 850.657 228.161 843.337 207.708 836.312C195.103 855.692 172.297 884.522 154.616 899.787C146.546 901.242 110.913 902.427 105.725 899.057L105.52 897.942C106.833 894.897 131.092 871.062 134.858 867.247C148.716 853.192 162.194 838.842 173.97 822.917C160.697 816.807 147.682 811.287 134.806 804.492C97.4539 784.777 61.7084 758.862 35.4664 725.462C30.0589 718.582 22.6044 710.112 19.9889 701.557C21.2064 695.327 26.3039 682.722 28.4194 676.187C33.5509 660.342 39.2449 644.547 43.4989 628.417C38.5084 613.797 30.7864 597.782 25.3214 582.447C10.4539 540.512 2.07489 496.552 0.473886 452.087C-4.74761 333.285 33.1954 223.07 113.568 134.646C171.026 71.4334 234.362 30.5444 317.893 10.8934C342.138 5.18989 361.44 1.72439 386.778 0.608187Z" fill="black"/>
<path d="M245.334 71.1144C260.201 70.6384 271.62 71.4539 286.469 73.4269C310.834 76.6294 334.672 83.0249 357.368 92.4484C397.748 109.348 443.253 142.581 469.808 177.268C457.708 181.951 444.463 185.786 432.018 190.575C340.218 225.895 251.309 285.605 200.233 371.569C190.717 387.586 184.981 400.722 177.38 417.705C167.064 410.004 156.885 404.75 143.929 403.233C123.446 400.745 102.146 407.428 86.2644 420.478C39.0229 459.297 41.1699 536.707 78.1829 581.627C90.8674 598.167 112.961 613.327 134.276 614.997C219.236 621.667 232.123 508.332 202.392 450.417C196.862 439.645 191.658 432.448 184.36 423.65C249.611 254.772 455.128 165.257 625.788 159.118C641.193 158.564 706.198 161.855 716.943 173.474C727.068 184.421 741.993 216.461 749.008 231.112C737.918 222.053 724.698 217.175 711.013 213.509C632.588 192.503 506.893 225.38 433.013 255.433C409.158 265.111 386.023 276.48 363.791 289.455C309.708 320.804 249.423 372.367 232.977 435.2C222.975 473.412 239.768 561.342 250.231 601.432C254.809 618.972 260.519 636.687 266.828 653.682C273.281 670.822 281.158 687.392 290.375 703.222C300.589 719.397 309.269 731.257 323.121 744.682C381.988 801.732 493.213 812.692 571.638 810.247C637.913 808.182 734.378 790.157 789.608 751.242C797.723 745.522 806.278 737.212 813.128 729.937C812.833 730.842 812.513 731.737 812.163 732.627C809.898 738.472 796.478 767.922 792.923 770.137C708.983 822.537 574.663 833.877 480.383 827.757C401.758 822.652 320.259 808.247 253.074 782.247C254.682 777.777 258.212 770.292 260.161 765.782C263.507 758.037 259.761 761.557 260.888 757.467C264.295 745.102 272.042 736.302 266.203 722.937C262.144 713.652 254.576 708.812 245.329 705.242C236.755 701.927 228.6 700.822 219.878 704.702C205.702 711.012 204.973 732.457 199.581 745.237C197.354 750.512 195.477 750.462 193.13 757.547C150.807 742.882 111.671 720.272 77.8249 690.932C69.6269 683.737 62.8884 676.512 55.1939 668.957C58.9959 659.957 67.6759 633.942 68.7139 624.127C69.0679 620.777 58.9094 600.217 57.0324 595.077C54.3394 587.702 51.0349 578.312 48.4194 570.537C42.5884 552.617 37.8254 534.372 34.1559 515.892C26.3609 476.072 24.7494 441.61 26.6169 401.081C27.1244 391.687 27.8459 382.307 28.7814 372.947C29.1669 369.35 31.8119 363.27 29.0499 360.895C27.0714 360.854 27.9929 360.643 26.2054 361.643C23.3899 366.34 22.9209 382.676 22.4379 388.753C18.8014 434.482 20.7819 481.602 30.5799 526.502C33.5494 540.112 37.5884 553.682 41.6564 567.002C44.7069 576.992 48.4189 586.922 52.2214 596.647C54.9149 603.532 62.8524 618.797 63.2689 625.447C63.8839 635.252 40.2364 691.167 36.5294 708.382C34.4434 705.842 32.4019 703.587 30.9004 700.657C36.5119 688.387 54.5604 638.562 54.6214 627.307C54.6624 619.742 43.5289 598.087 40.2879 589.752C36.7009 580.532 33.3034 570.992 30.4674 561.517C20.8039 529.217 13.3334 492.457 11.7779 458.787C7.26937 361.207 29.8854 272.957 84.2739 191.468C96.2589 173.511 109.133 156.164 123.735 140.222C140.456 121.967 158.52 105.63 177.996 90.3954C183.899 85.7784 190.234 80.1649 197.308 77.5059C210.402 72.5844 231.336 71.7259 245.334 71.1144Z" fill="#262626"/>
<path d="M553.368 246.041C572.438 258.304 607.153 263.703 629.638 259.411C607.908 275.272 581.643 273.77 556.623 272.53L554.963 274.01C555.793 275.007 555.768 274.603 555.888 275.594C559.108 277.342 564.158 279.642 567.068 281.548C582.298 291.508 591.288 304.043 600.453 319.206C584.978 306.074 568.098 295.981 546.883 297.688C548.178 299.322 548.213 299.51 550.118 300.072L549.943 300.518C554.438 301.76 559.828 302.381 564.133 303.779C586.578 311.066 595.323 319.564 611.338 335.081C602.938 310.705 593.733 293.663 571.693 278.287C583.503 279.009 590.763 278.997 602.633 277.746C622.253 289.409 639.613 307.502 651.203 327.085C652.848 329.856 656.943 337.164 657.783 340.159C658.128 341.367 658.428 342.031 658.448 343.271C671.588 357.775 688.148 408.265 694.598 427.726C704.488 457.577 703.948 485.252 727.708 509.697C700.538 510.627 686.613 501.737 663.013 489.767C646.908 481.602 626.808 468.437 607.788 473.387C586.013 479.702 572.973 509.042 562.728 526.877C550.248 548.957 533.928 568.632 514.538 584.972C507.408 590.932 499.733 595.927 491.763 600.662C482.633 606.077 459.313 616.877 453.773 624.297C451.713 627.052 451.068 632.902 451.233 636.277C451.493 641.557 453.948 646.257 457.888 649.732C471.018 661.322 520.543 659.892 538.398 658.387C578.298 655.022 617.103 642.852 655.018 630.632C675.978 623.877 697.238 617.172 717.213 607.827C699.733 653.097 661.583 687.022 619.173 708.717C610.978 712.907 602.708 716.607 594.298 720.332C574.958 728.862 554.723 735.177 533.968 739.157C525.948 740.772 516.948 741.727 509.198 743.597C531.423 745.012 557.348 739.637 578.433 732.377C584.873 730.157 591.453 726.947 597.893 724.597C591.068 729.112 585.073 732.852 577.833 736.722C565.248 743.442 552.033 745.747 538.838 750.222C560.868 747.942 586.198 738.487 603.008 724.232C603.748 723.602 604.593 723.822 605.408 723.927C605.918 724.567 606.478 725.242 606.953 725.902C607.288 726.637 607.903 727.847 608.068 728.572C608.743 730.717 609.148 731.582 610.163 733.602C609.653 734.052 607.203 736.142 606.968 736.542C608.398 736.637 609.238 735.787 610.388 735.002C610.623 735.537 610.458 735.447 610.178 736.312L609.843 735.812L609.658 736.017C609.818 737.537 609.938 736.792 609.058 738.262C610.178 737.322 610.233 737.252 611.528 736.602C612.838 737.907 621.408 752.917 622.913 755.442C627.638 763.257 632.493 770.992 637.473 778.642C616.363 781.157 595.468 783.532 574.198 784.277C510.113 786.532 413.573 778.542 359.625 740.907C319.381 712.832 296.607 662.087 282.74 616.537C278.875 603.842 275.241 591.057 272.976 577.957C272.642 576.022 271.777 573.072 272.915 571.462L271.675 568.482C270.065 565.462 267.072 552.037 268.762 548.862C268.197 548.067 268.185 547.837 267.806 546.922C265.517 542.437 263.434 531.297 265.193 526.407L264.163 526.152C263.757 524.937 263.69 524.512 263.473 523.237C261.96 520.452 260.947 508.747 260.517 505.197C265.951 495.542 269.532 484.267 272.454 473.592C267.315 482.652 263.894 490.472 259.711 500.067C258.971 493.442 258.535 486.292 258.147 479.622C264.655 471.762 270.423 461.222 272.634 451.212C267.818 459.032 262.931 465.842 257.742 473.387C257.305 467.792 257.44 460.112 257.701 454.542C264.131 448.321 268.84 440.565 272.307 432.352C268.549 436.092 262.051 443.178 258.991 447.321C264.975 408.35 296.913 372.715 326.024 348.126C391.308 292.983 471.488 265.623 553.368 246.041Z" fill="#F59E0B"/>
<path d="M606.968 736.542C608.398 736.637 609.238 735.787 610.388 735.002C610.623 735.537 610.458 735.447 610.178 736.312L609.843 735.812L609.658 736.017C609.818 737.537 609.938 736.792 609.058 738.262C605.293 744.987 571.363 763.162 563.413 761.607C564.838 760.392 571.643 758.522 573.898 757.542C585.958 752.292 596.648 744.527 606.968 736.542Z" fill="black"/>
<path d="M606.953 725.902C607.288 726.637 607.903 727.847 608.068 728.572C593.618 741.152 585.453 745.267 567.278 752.137L566.068 751.377C582.768 743.807 592.778 737.347 606.953 725.902Z" fill="black"/>
<path d="M622.753 321.828C636.243 324.02 643.088 327.747 653.678 336.432L652.828 338.729C646.593 334.281 640.968 330.658 634.088 327.253C630.513 325.485 625.958 323.828 622.753 321.828Z" fill="black"/>
<path d="M263.473 523.237C265.624 514.507 268.229 507.877 272.005 499.717C270.467 510.472 268.777 516.092 265.193 526.407L264.163 526.152C263.757 524.937 263.69 524.512 263.473 523.237Z" fill="black"/>
<path d="M267.806 546.922C268.445 538.452 270.262 531.332 274.657 524.067C273.047 531.327 271.045 542.142 268.762 548.862C268.197 548.067 268.185 547.837 267.806 546.922Z" fill="black"/>
<path d="M271.675 568.482C273.066 561.897 274.055 556.022 276.944 549.902C276.031 555.632 274.453 566.022 272.915 571.462L271.675 568.482Z" fill="black"/>
<path d="M555.888 275.594C551.388 274.128 546.718 272.691 542.323 270.962C547.018 271.603 551.898 272.042 556.623 272.53L554.963 274.01C555.793 275.007 555.768 274.603 555.888 275.594Z" fill="black"/>
<path d="M535.818 299.001C539.643 298.408 543.023 298.052 546.883 297.688C548.178 299.322 548.213 299.51 550.118 300.072L549.943 300.518C545.643 300.254 540.188 299.487 535.818 299.001Z" fill="black"/>
<path d="M653.678 336.432L657.783 340.159C658.128 341.367 658.428 342.031 658.448 343.271L652.828 338.729L653.678 336.432Z" fill="black"/>
<path d="M567.278 752.137C565.438 752.807 562.018 754.172 560.128 753.827L561.418 753.752L560.878 753.237C561.853 752.737 564.878 751.787 566.068 751.377L567.278 752.137Z" fill="black"/>
<path d="M459.558 383.604C533.733 379.617 587.193 537.557 488.393 540.022C438.788 540.237 399.923 485.787 406.303 438.468C410.378 408.255 427.728 385.755 459.558 383.604Z" fill="black"/>
<path d="M460.383 389.108C485.623 389.922 508.838 406.624 519.963 428.959C500.003 402.664 471.278 401.611 461.653 436.669C486.353 417.648 497.848 458.162 473.353 463.072C468.788 463.987 464.018 460.612 460.623 457.832C463.533 483.377 484.143 511.052 511.168 513.322C525.318 512.377 530.478 508.912 536.388 496.007C532.763 519.152 516.718 533.437 493.998 534.987C432.713 539.162 385.763 453.497 426.058 405.39C435.463 394.162 446.548 390.177 460.383 389.108Z" fill="white"/>
<path d="M642.773 362.944C675.818 360.392 712.298 471.152 678.623 486.242C646.833 488.882 614.473 389.472 637.443 366.289C638.743 364.977 641.098 363.806 642.773 362.944Z" fill="black"/>
<path d="M643.523 368.392C658.313 368.018 672.078 393.261 676.363 405.134C674.693 402.48 673.003 399.836 671.298 397.201C651.358 366.527 643.618 406.083 647.743 411.694C648.378 411.424 649.018 411.154 649.658 410.884C659.323 406.749 667.098 419.746 662.728 427.819C659.163 434.41 654.973 434.809 649.068 431.583C651.518 437.341 653.793 444.02 656.233 450.016C660.173 458.997 665.438 469.467 673.833 475.102C677.343 477.457 679.908 476.812 681.418 478.102C680.348 480.382 675.678 481.937 673.298 481.072C665.948 478.402 658.888 468.977 655.188 462.457C641.418 438.162 630.823 407.779 635.888 379.708C636.853 374.739 639.288 370.908 643.523 368.392Z" fill="white"/>
<path d="M328.045 674.682C330.025 675.952 335.745 685.717 337.893 688.237C354.127 707.307 370.697 714.562 393.488 721.577C370.049 723.642 355.809 723.712 334.444 713.827C329.138 710.102 325.073 699.782 326.023 693.432L326.606 693.202C329.078 695.772 330.431 700.137 332.671 703.087C341.488 714.682 353.611 716.692 366.954 718.667C366.539 718.427 366.126 718.187 365.713 717.942C349.544 708.367 332.919 693.557 328.045 674.682Z" fill="black"/>
<path d="M435.048 334.548C444.233 333.797 447.548 334.202 455.438 339.055C450.633 339.534 446.233 339.161 441.173 340.013C423.468 342.995 411.268 350.956 399.178 363.562C395.823 367.415 392.628 371.98 389.623 376.153C395.283 353.923 412.553 338.472 435.048 334.548Z" fill="black"/>
<path d="M317.136 654.237C318.272 658.762 317.926 686.117 315.705 689.072C312.842 680.052 313.876 663.492 317.136 654.237Z" fill="black"/>
<path d="M298.248 622.777L298.74 623.307C300.126 628.002 298.279 644.882 296.98 650.022C293.209 644.472 296.863 628.917 298.248 622.777Z" fill="black"/>
<path d="M307.456 638.117C310.706 642.702 307.046 663.227 305.666 668.917L305.373 668.547C304.26 661.197 306.057 645.882 307.456 638.117Z" fill="black"/>
<path d="M613.603 743.412C614.228 746.142 607.028 751.967 605.153 753.537C597.168 760.197 589.438 763.957 579.318 765.997C579.323 765.747 579.333 765.492 579.338 765.242C582.038 764.217 587.858 762.597 590.238 761.282C599.358 756.252 606.868 751.232 613.603 743.412Z" fill="black"/>
<path d="M281.878 571.262L282.384 572.127C281.572 576.987 279.555 589.932 277.727 594.117C274.73 588.897 279.607 576.367 281.878 571.262Z" fill="black"/>
<path d="M292.725 609.227C293.677 613.222 291.763 626.697 290.339 630.867C288.232 625.057 290.596 614.832 292.725 609.227Z" fill="black"/>
<path d="M287.279 593.247C288.114 597.782 285.402 611.692 284.338 616.577C282.666 611.622 285.403 598.177 287.279 593.247Z" fill="black"/>
<path d="M404.483 12.1374C442.398 11.3494 488.563 14.8559 524.453 28.7064C531.763 31.5284 540.483 38.8929 546.693 43.9474C576.503 68.2274 601.468 97.9019 620.298 131.42C623.688 137.481 627.643 144.361 630.208 150.761C624.713 151.436 618.208 151.826 612.653 151.954C569.553 152.943 529.138 163.466 487.283 172.155C483.688 167.48 479.983 162.884 476.183 158.371C468.318 149.322 460.003 140.67 451.278 132.447C403.408 88.5049 342.704 61.0779 278.089 54.1994C261.931 52.5959 250.886 52.8694 234.882 53.4369C248.315 48.4499 262.195 41.5019 276.11 36.1439C319.838 19.3054 358.007 13.4914 404.483 12.1374Z" fill="#262626"/>
<path d="M470.853 45.4964C488.108 44.2524 505.198 67.7964 484.573 73.5379C463.798 74.3639 450.188 50.8494 470.853 45.4964Z" fill="black"/>
<path d="M471.033 50.9449C482.303 50.2849 493.768 64.0189 483.403 67.9914C482.523 67.8934 481.643 67.7739 480.768 67.6329C473.858 66.5349 458.808 57.0859 471.033 50.9449Z" fill="#262626"/>
<path d="M788.303 778.347L788.793 778.827C788.063 780.652 782.163 789.827 780.648 792.582C771.883 808.562 761.738 823.757 753.363 839.952C747.173 843.122 740.753 846.492 734.423 849.342C691.308 868.527 645.383 880.652 598.418 885.262C549.463 890.372 499.618 887.787 450.803 882.382C412.513 878.142 374.45 872.572 336.932 863.687C302.552 855.547 267.471 846.707 234.395 834.142L226.85 831.082C230.074 824.197 233.203 817.302 235.913 810.207C236.654 808.267 238.326 807.752 238.601 806.562C240.545 798.122 242.667 793.012 247.863 785.992C268.781 793.832 298.873 803.492 320.932 808.737C440.843 837.247 569.513 844.967 690.118 816.172C724.168 808.042 758.408 796.487 788.303 778.347Z" fill="#262626"/>
<path d="M505.723 846.547C512.123 845.952 522.193 846.122 523.363 854.422C525.243 867.782 506.733 876.057 496.003 877.877C464.053 881.802 475.993 851.012 505.723 846.547Z" fill="black"/>
<path d="M507.223 851.497C512.978 850.872 522.823 851.392 517.328 859.937C512.348 867.682 502.863 870.707 494.343 872.657C489.203 873.192 477.823 873.477 483.653 865.032C488.938 857.382 498.348 853.257 507.223 851.497Z" fill="black"/>
<path d="M573.773 846.517C601.693 844.252 584.103 874.862 558.133 879.292C530.283 882.467 546.013 851.077 573.773 846.517Z" fill="black"/>
<path d="M574.613 851.552C577.428 851.267 580.478 851.782 582.263 854.077C583.648 864.262 564.973 872.147 556.833 873.882C553.628 874.122 550.603 874.247 548.738 871.267C548.118 862.147 566.648 852.602 574.613 851.552Z" fill="black"/>
<path d="M635.693 839.487C647.673 838.607 650.783 845.937 644.673 855.677C638.698 865.202 628.748 871.867 617.778 874.387C614.293 874.682 610.973 874.262 607.923 872.422C606.518 871.592 605.538 870.202 605.223 868.597C604.538 865.207 606.408 860.187 608.373 857.517C615.428 847.917 624.208 841.857 635.693 839.487Z" fill="black"/>
<path d="M636.493 844.972C638.713 844.787 640.693 844.852 642.168 846.777C643.788 856.232 624.088 867.812 616.248 870.182C613.478 869.947 611.063 869.317 609.993 866.512C610.058 857.077 628.183 846.857 636.493 844.972Z" fill="black"/>
<path d="M689.563 827.507C712.283 825.882 695.408 858.112 672.443 861.737C659.623 861.397 659.653 852.217 665.548 843.312C670.808 835.362 680.303 829.482 689.563 827.507Z" fill="black"/>
<path d="M688.918 832.922C691.993 832.752 693.628 832.487 695.018 835.532C694.793 844.482 681.413 854.207 673.478 856.682C660.538 857.102 670.933 844.637 675.398 840.877C679.888 837.097 683.253 834.667 688.918 832.922Z" fill="black"/>
<path d="M740.398 809.477C751.148 809.192 751.728 815.922 747.223 823.902C741.488 834.057 733.103 843.382 721.658 846.867C697.793 848.672 721.313 814.442 740.398 809.477Z" fill="black"/>
<path d="M739.778 814.877C749.203 816.372 740.253 825.757 737.158 829.482C732.763 834.782 727.618 838.707 721.253 841.352C719.003 841.382 719.263 841.707 717.533 840.787C713.348 833.112 733.813 817.877 739.778 814.877Z" fill="black"/>
<path d="M613.073 481.972C640.623 480.377 678.133 515.717 707.213 518.267C715.183 519.262 723.058 519.137 731.063 518.077C750.888 515.457 785.823 505.572 793.408 532.767C783.598 530.347 776.323 531.937 766.768 533.792C730.608 540.812 707.958 563.967 679.273 584.372C664.193 595.102 649.748 603.092 632.813 610.892C601.358 624.192 567.958 632.297 533.908 634.897C516.123 636.182 482.593 637.587 468.913 625.777C480.263 618.527 492.358 612.447 504.218 604.757C531.863 587.407 551.568 564.437 568.438 536.782C579.453 518.722 590.908 487.532 613.073 481.972Z" fill="#92400D"/>
<path d="M606.908 516.437C615.333 516.037 624.028 521.802 629.178 528.282C632.203 532.087 630.148 535.182 626.263 536.932C616.058 537.312 592.408 523.827 606.908 516.437Z" fill="black"/>
<path d="M607.003 519.377C608.793 519.297 610.843 519.237 612.498 519.977C617.108 522.032 628.358 527.282 625.813 533.597C620.248 532.997 602.198 527.142 607.003 519.377Z" fill="#92400D"/>
<path d="M638.498 212.673C646.643 212.268 654.798 212.23 662.948 212.558C685.968 213.51 730.203 218.501 746.653 236.409C763.363 256.951 737.623 296.443 724.623 313.429C712.903 328.744 693.838 350.566 680.028 362.609C678.708 360.278 677.773 358.049 676.698 355.606C698.938 336.51 742.578 285.414 741.118 255.089C739.508 221.511 657.493 220.912 633.258 222.507C599.313 224.742 565.298 230.675 532.343 239.175C442.663 261.729 350.746 299 287.817 369.276C271.089 388.283 250.926 417.705 247.026 443.225C242.899 470.222 248.684 508.187 252.864 535.107C261.362 589.822 275.173 645.272 302.806 693.662C311.777 709.377 326.584 726.437 339.789 738.867C399.788 791.572 516.568 798.227 592.143 793.827C599.718 793.227 607.288 792.502 614.843 791.657C654.853 787.327 694.173 778.057 731.903 764.057C762.958 752.522 783.288 741.957 804.413 715.417C806.508 718.922 808.608 722.977 810.583 726.592C796.133 739.642 785.418 747.997 768.278 757.687C712.643 789.142 631.543 802.772 568.313 804.997C492.873 807.657 385.443 796.012 328.089 742.142C276.385 693.577 253.121 605.857 242.678 537.912C239.308 517.112 236.213 496.522 235.24 475.452C234.267 454.367 235.082 442.664 242.819 422.864C262.034 373.693 300.514 337.783 343.405 308.83C411.778 262.679 490.998 236.096 571.503 220.687C593.378 216.511 616.253 213.408 638.498 212.673Z" fill="#262626"/>
<path d="M118.767 454.027C127.369 453.447 135.181 456.087 142.418 460.822C175.594 482.522 177.945 559.262 132.007 567.372C74.3499 569.282 63.7954 463.772 118.767 454.027Z" fill="black"/>
<path d="M120.53 467.007C155.058 465.117 166.207 515.362 151.698 539.552C146.325 548.507 141.101 551.942 131.149 554.532C125.032 555.417 118.799 554.087 113.578 550.782C85.1084 532.977 85.7429 474.592 120.53 467.007Z" fill="black"/>
<path d="M121.943 471.077C126.698 470.812 131.424 471.972 135.516 474.407C156.686 486.817 160.663 526.542 143.524 543.547C139.262 547.777 135.616 549.137 130.087 550.507C89.8539 550.522 84.9239 477.462 121.943 471.077Z" fill="#262626"/>
<path d="M137.364 419.161C185.336 431.466 205.531 498.942 197.121 542.372C192.243 567.557 184.155 582.082 163.402 596.492C162.138 597.337 162.198 597.372 160.745 597.742C159.848 596.947 146.57 570.562 144.648 567.082C174.586 551.247 176.879 504.507 161.925 477.777C153.724 463.117 145.403 455.337 129.332 450.452C131.785 439.169 134.219 430.221 137.364 419.161Z" fill="#262626"/>
<path d="M555.363 40.3099C560.103 41.3229 573.693 49.1859 578.423 51.5734C619.068 72.1059 655.698 100.969 685.963 134.932C692.558 142.338 701.003 151.292 706.378 159.608C704.003 159.391 700.038 158.435 697.668 157.862C678.503 153.222 659.558 152.144 639.923 150.893C613.908 101.191 597.173 76.9609 555.363 40.3099Z" fill="#262626"/>
<path d="M53.2944 673.612C54.7914 674.477 58.4154 678.707 59.7379 680.172C56.5824 687.212 54.0749 694.527 52.2469 702.017C51.2974 705.777 49.1429 712.912 51.1714 716.302L52.0549 716.082C54.9819 712.527 61.0589 690.677 63.5459 684.247C65.7559 686.532 67.5729 688.297 69.9339 690.427C68.0674 697.642 58.3559 725.922 62.5659 730.872C64.2694 729.612 73.3089 698.552 74.4634 694.272C77.0519 696.427 79.6424 698.872 82.1404 701.152C80.2439 708.527 72.7134 736.907 76.1684 742.962L77.3939 743.152C79.6574 741.692 80.3624 733.197 80.9454 730.212C82.5624 721.817 84.3384 713.457 86.2734 705.132L95.3044 711.422C92.7889 720.207 85.8124 747.442 90.5404 755.027L91.3019 754.957C92.5074 751.312 93.6664 743.312 94.4509 739.197C96.0929 730.817 97.9124 722.472 99.9079 714.167C103.356 717.362 105.787 718.962 109.636 721.612C107.674 727.067 100.56 761.117 104.287 764.737L105.068 764.242C108.324 757.207 112.375 733.622 113.869 724.987C117.523 726.627 120.915 728.627 124.272 730.792C117.266 743.697 116.726 763.827 119.212 778.162C122.49 769.452 125.49 744.092 127.572 733.162C130.462 735.022 134.821 737.287 137.909 739.012C135.505 746.667 133.783 754.517 132.762 762.472C132.18 766.882 130.117 785.292 132.521 788.422L133.508 788.342C135.716 785.882 137.049 770.052 137.622 765.937C138.846 757.647 140.314 749.397 142.025 741.192C144.375 742.427 147.481 743.762 149.944 744.897C147.542 762.967 142.046 775.357 142.339 795.542C100.951 773.677 65.6604 749.147 37.9929 710.732C43.9444 697.882 48.2374 686.812 53.2944 673.612Z" fill="#262626"/>
<path d="M774.063 540.037L774.748 540.552C774.183 545.712 758.818 558.112 754.308 561.237C676.398 615.167 581.148 657.942 484.323 647.657C475.618 646.732 465.398 646.582 462.233 636.977C462.233 634.527 462.158 630.332 464.308 628.902C466.913 629.907 471.558 634.457 474.408 636.082C486.063 642.717 509.808 642.622 523.178 642.342C570.483 640.972 616.833 628.707 658.623 606.507C676.488 596.882 694.738 583.727 710.388 570.972C730.788 554.342 748.088 545.647 774.063 540.037Z" fill="#92400D"/>
<path d="M61.4719 506.917C66.9619 507.722 72.7269 508.132 78.2634 508.487C79.5244 541.112 103.086 581.542 140.675 569.152C143.416 574.052 156.071 595.967 155.666 600.502C149.867 602.002 143.953 603.432 137.904 603.357C91.2244 602.772 61.1929 549.097 61.4719 506.917Z" fill="#262626"/>
<path d="M118.831 418.05C123.251 417.502 128.531 417.871 132.946 418.22C129.878 429.399 127.425 438.409 124.874 449.865C100.665 449.386 85.4204 467.187 80.2009 489.822C79.3754 493.402 79.1729 500.642 78.1024 503.492L76.8934 503.742C71.7499 503.222 66.6029 502.742 61.4529 502.292C61.4549 464.922 77.9194 424.56 118.831 418.05Z" fill="#262626"/>
<path d="M185.895 801.602C189.602 802.472 194.604 804.847 198.225 806.302C207.49 810.027 217.344 815.202 226.921 817.812L222.587 827.817C216.432 825.402 210.235 823.102 203.998 820.907C195.155 838.657 173.271 865.257 159.254 880.052C155.903 883.592 152.228 887.007 148.7 890.382C141.817 890.287 134.933 890.372 128.055 890.637C149.055 867.892 177.156 842.647 190.718 814.312C188.426 812.387 186.286 810.322 184.108 808.272C184.555 805.922 185.212 803.887 185.895 801.602Z" fill="#262626"/>
<path d="M246.249 58.6109C262.943 57.8239 283.779 59.8534 300.127 62.8964C357.095 73.3069 409.748 100.235 451.533 140.331C460.558 148.836 474.943 163.81 481.918 173.963C479.943 174.459 477.908 175.053 475.938 175.594C471.448 169.699 466.663 164.035 461.603 158.624C450.748 146.314 434.548 132.354 421.393 122.468C372.034 85.3684 308.497 63.9654 246.722 64.3469C234.38 64.4234 222.817 66.1004 210.62 67.9714C225.148 58.3049 229.163 59.3284 246.249 58.6109Z" fill="black"/>
<path d="M128.27 410.58C132.217 409.932 140.476 410.384 144.403 411.13C221 425.685 236.674 574.157 166.276 605.467C162.237 607.262 150.434 610.092 146.474 609.317C147.773 608.697 150.138 608.332 151.646 608.032C165.164 603.212 177.276 595.657 185.78 583.877C222.031 533.657 203.223 431.862 138.431 414.209C130.616 412.08 120.331 413.128 112.394 414.321C117.216 412.194 123.074 411.194 128.27 410.58Z" fill="#262626"/>
<path d="M164.324 751.992C172.005 754.682 184.024 758.787 191.172 762.072C187.686 769.627 188.452 771.282 186.082 778.242C183.179 786.762 180.13 794.532 177.468 803.277L175.334 810.862C168.287 808.232 163.246 805.852 156.715 802.397C158.328 792.052 159.865 781.697 161.325 771.327C162.112 765.732 163.022 757.307 164.324 751.992Z" fill="#262626"/>
<path d="M231.401 721.537C237.951 721.572 243.469 723.837 246.744 729.847C251.164 737.952 249.071 745.067 246.705 753.317L237.345 749.462C229.802 746.107 222.211 742.862 214.575 739.722C217.667 730.022 220.263 723.392 231.401 721.537Z" fill="#262626"/>
<path d="M686.988 673.342C723.378 681.467 757.743 692.292 790.083 710.977C788.648 712.972 787.093 714.432 785.373 716.182C783.413 716.567 771.403 707.427 767.248 705.672C739.748 694.062 711.153 685.432 682.123 678.802L686.988 673.342Z" fill="#262626"/>
<path d="M203.406 752.592C207.703 753.997 214.315 757.197 218.861 759.072C228.81 763.132 238.818 767.052 248.881 770.822C246.684 774.817 244.539 779.257 242.465 783.352L241.968 783.732C238.884 783.562 203.66 768.257 198.646 766.012L203.406 752.592Z" fill="#262626"/>
<path d="M230.581 707.572C239.428 707.672 252.771 713.322 258.52 720.182C267.891 731.367 259.807 744.842 256.293 756.892L251.152 754.812C254.686 743.597 257.541 738.337 251.532 727.082C244.045 716.247 232.749 712.902 221.016 719.627C215.396 722.847 212.203 732.097 209.938 737.892C208.744 738.417 209.344 738.362 208.094 737.892C207.968 737.622 207.652 737.022 207.747 736.757C213.052 721.742 212.161 709.657 230.581 707.572Z" fill="#262626"/>
<path d="M197.023 772.417C210.59 778.807 224.5 784.442 238.688 789.302C237.075 793.852 235.507 798.422 233.984 803.007C225.997 800.392 199.066 789.882 192.274 785.827C193.67 780.917 195.171 777.142 197.023 772.417Z" fill="#262626"/>
<path d="M782.538 538.437C785.863 538.907 789.338 539.342 792.618 540.002C790.423 545.532 786.398 550.387 782.383 554.732C759.123 579.917 724.208 595.137 693.578 609.037L692.713 607.947C716.778 594.967 775.873 565.487 782.538 538.437Z" fill="#92400D"/>
<path d="M154.316 746.857L160.581 749.707C157.248 761.302 154.733 774.437 153.437 786.437C152.943 791.007 153.082 795.237 152.592 799.797L151.766 800.412C149.627 799.377 147.281 797.987 145.186 796.812C148.627 782.112 151.81 761.982 154.316 746.857Z" fill="#262626"/>
<path d="M189.286 792.242C201.78 796.452 218.28 803.627 230.834 808.652L228.841 813.182C217.39 806.522 198.519 801.457 188.08 795.862C187.884 794.707 188.702 793.557 189.286 792.242Z" fill="#262626"/>
<path d="M205.618 742.717C211.764 744.767 221.22 748.877 227.624 751.402C235.314 754.437 247.069 758.542 254.144 761.972C254.415 763.322 253.988 763.487 253.259 765.052C250.483 765.382 210.443 748.437 206.055 745.832C205.182 744.442 205.487 744.737 205.618 742.717Z" fill="#262626"/>
<path d="M693.578 609.037C691.928 609.827 689.398 611.007 687.613 610.947C688.788 609.527 690.903 608.812 692.713 607.947L693.578 609.037Z" fill="#92400D"/>
</svg>
